<?xml version="1.0"?>
<svg version="1.1" xmlns="http://www.w3.org/2000/svg" width="210px" height="80px" style=""><path fill="#0095ff" d="M76.35,45.5l-1.25-4.3s-2.35-0.8-5.65-0.8c-5.35,0-8.35,3.9-8.35,12.25c0,8.1,3.15,11.6,8.5,11.6c2.6,0,5.5-0.9,5.5-0.9l0-6.3l-3.75-1.15l0-4.1l14.4-0.25l0,4.35l-3.4,1.15l0,10.2s-5.15,3.35-13.6,3.35c-10.15,0-16-6.1-16-17.7c0-11.75,6.6-18.75,16.85-18.75c6.05,0,11.65,2.35,11.65,2.35l-0.25,9l-4.65,0z M103.2255,43l0.45,3.45s3.6-3.95,6.95-3.95c2.75,0,4.65,0.9,4.65,0.9l-0.4,9.6l-4.5,0l-0.75-4.25c-2.9,0-5.4,2.8-5.4,2.8l0,13.2l5,1.25l0,4l-16.5,0l0-4l4-1.25l0-16.25l-4-1.25l0-4z M134.251,42.5c8.1,0,12.6,4.9,12.6,13.5c0,9-5.25,14.5-13.35,14.5c-8.15,0-12.75-4.25-12.75-13.75c0-9,5.35-14.25,13.5-14.25z M134.001,48.5c-3.65,0-5.5,2-5.5,8c0,5.5,1.6,8,5.25,8c3.6,0,5.35-2.25,5.35-8.25c0-5.1-1.5-7.75-5.1-7.75z M175.6765,47.65l-12.5,16.85l7.3,0l0.85-4.25l4.5,0l0,9.75l-21.75,0l0-4.6l12.7-16.9l-6.85,0l-0.75,3.65l-4.5,0l0-9.15l21,0l0,4.65z M199.602,70l-0.9-3.25s-3.85,3.75-8.1,3.75c-4.85,0-7.8-2.85-7.8-7.85c0-5.9,4.45-8.25,12.05-8.25l3.5,0l0-2.75c0-2.55-1.35-3.65-3.85-3.65c-2.55,0-4.4,0.75-4.4,0.75l-0.75,3.15l-4.5,0l-0.35-7.4s6.05-2,10.85-2c7.6,0,10.5,2.65,10.5,9.9l0,12.35l3.75,0.9l0,4z M198.352,58.65l-2.85,0c-3.9,0-5.45,1-5.45,3.25c0,1.9,1.05,3,2.95,3c2.65,0,5.35-2.9,5.35-2.9l0-3.35z"/><path fill="#" d=""/></svg>
